<svg width="30" height="30" viewBox="0 0 30 30" fill="none" xmlns="http://www.w3.org/2000/svg">
<g clip-path="url(#clip0)">
<path d="M22.9871 4.97363C23.0001 4.97458 23.0132 4.97553 23.0265 4.97553C23.049 4.97553 23.0716 4.97363 23.0936 4.97055C23.6843 4.98265 24.1571 5.46443 24.1578 6.05513C24.1578 6.32355 24.3754 6.54118 24.6439 6.54118C24.9123 6.54118 25.1299 6.32355 25.1299 6.05513C25.1287 5.08897 24.4561 4.25311 23.5125 4.04521V3.57815C23.5125 3.30973 23.2949 3.0921 23.0265 3.0921C22.7581 3.0921 22.5404 3.30973 22.5404 3.57815V4.06728C21.5427 4.33404 20.8972 5.29925 21.0317 6.32331C21.1663 7.34738 22.0392 8.113 23.072 8.113C23.6718 8.113 24.1578 8.59928 24.1578 9.19901C24.1578 9.7985 23.6718 10.2848 23.072 10.2848C22.4723 10.2848 21.9863 9.7985 21.9863 9.19901C21.9863 8.93059 21.7686 8.71296 21.5002 8.71296C21.2318 8.71296 21.0142 8.93059 21.0142 9.19901C21.0154 10.1303 21.641 10.945 22.5404 11.1869V11.7194C22.5404 11.9878 22.7581 12.2055 23.0265 12.2055C23.2949 12.2055 23.5125 11.9878 23.5125 11.7194V11.2092C24.539 10.9844 25.2312 10.0223 25.118 8.97758C25.0051 7.93287 24.1229 7.14114 23.072 7.14138C22.4889 7.14162 22.0098 6.6812 21.9867 6.09856C21.964 5.51593 22.4056 5.0192 22.9871 4.97387V4.97363Z" fill="#929292"/>
<path d="M23.0998 0.715744C20.1097 0.715744 17.558 2.66681 16.602 5.27931H4.53842C4.27119 5.27931 4.05427 5.5202 4.05237 5.78719L3.9375 22.8377H0.498863C0.230445 22.8377 0 23.0321 0 23.301V25.4647C0.00617049 27.5017 1.61051 29.1751 3.64535 29.2672V29.2778H18.6521V29.2636C18.7736 29.2681 18.8236 29.2778 18.9005 29.2778H18.911C21.017 29.2745 22.7227 27.5662 22.7227 25.4602V14.5204C22.8442 14.527 22.9728 14.5306 23.0986 14.5306C26.9037 14.5306 30.0001 11.4282 30.0001 7.62291C30.0001 3.81785 26.9051 0.715744 23.0998 0.715744ZM3.83023 28.3057H3.82715C2.25485 28.3036 0.979214 27.0322 0.972094 25.4597V23.8098H15.0675V25.4528C15.0682 26.4672 15.4733 27.4395 16.1929 28.1546C16.2439 28.2056 16.3073 28.245 16.3607 28.3057H3.83023ZM21.7506 25.4597C21.7508 27.0294 20.48 28.3027 18.9105 28.3057H18.9012C17.3254 28.3029 16.0474 27.0289 16.0396 25.4533V23.301C16.0436 23.1766 15.9961 23.0563 15.9081 22.9685C15.82 22.8807 15.6997 22.8335 15.5756 22.8377H4.9096L5.02114 6.2514H16.3322C16.246 6.69639 16.2014 7.14826 16.199 7.60132C16.1981 8.55941 16.3979 9.50682 16.7857 10.3828H12.1948C11.9262 10.3828 11.7088 10.6004 11.7088 10.8688C11.7088 11.1373 11.9262 11.3549 12.1948 11.3549H17.3131C18.3158 12.9317 19.9187 14.031 21.7506 14.3988V25.4597ZM23.0998 13.5587C19.8256 13.5587 17.1711 10.9044 17.1714 7.63003C17.1714 4.35563 19.8256 1.70136 23.1 1.70136C26.3742 1.70136 29.0285 4.35587 29.0285 7.63003C29.0249 10.9028 26.3728 13.5551 23.0998 13.5587Z" fill="#929292"/>
<path d="M9.07497 13.6176C8.21703 13.6176 7.51929 14.2932 7.51929 15.1239C7.51929 15.9545 8.21703 16.6302 9.07497 16.6302C9.93291 16.6302 10.6309 15.9545 10.6309 15.1239C10.6309 14.2932 9.93291 13.6176 9.07497 13.6176ZM9.07497 15.6581C8.75292 15.6581 8.49138 15.4184 8.49138 15.1239C8.49138 14.8291 8.75316 14.5897 9.07497 14.5897C9.39679 14.5897 9.6588 14.8294 9.6588 15.1239C9.6588 15.4184 9.39679 15.6581 9.07497 15.6581Z" fill="#929292"/>
<path d="M11.7087 15.1218C11.7087 15.3902 11.9261 15.6078 12.1948 15.6078H18.6748C18.9432 15.6078 19.1608 15.3902 19.1608 15.1218C19.1608 14.8533 18.9432 14.6357 18.6748 14.6357H12.1948C11.9261 14.6357 11.7087 14.8533 11.7087 15.1218Z" fill="#929292"/>
<path d="M9.07497 9.39243C8.21703 9.39243 7.51929 10.0683 7.51929 10.899C7.51929 11.7296 8.21703 12.4053 9.07497 12.4053C9.93291 12.4053 10.6309 11.7296 10.6309 10.899C10.6309 10.0683 9.93291 9.39243 9.07497 9.39243ZM9.07497 11.4332C8.75292 11.4332 8.49138 11.1935 8.49138 10.899C8.49138 10.6045 8.75316 10.3645 9.07497 10.3645C9.39679 10.3645 9.6588 10.6042 9.6588 10.899C9.6588 11.1935 9.39679 11.4334 9.07497 11.4334V11.4332Z" fill="#929292"/>
<path d="M9.07497 17.8422C8.21703 17.8422 7.51929 18.5179 7.51929 19.3485C7.51929 20.1792 8.21703 20.8548 9.07497 20.8548C9.93291 20.8548 10.6309 20.1792 10.6309 19.3485C10.6309 18.5179 9.93291 17.8422 9.07497 17.8422ZM9.07497 19.8828C8.75292 19.8828 8.49138 19.6433 8.49138 19.3485C8.49138 19.054 8.75316 18.8143 9.07497 18.8143C9.39679 18.8143 9.6588 19.054 9.6588 19.3485C9.6588 19.6431 9.39679 19.8828 9.07497 19.8828Z" fill="#929292"/>
<path d="M18.6748 18.8886H12.1948C11.9261 18.8886 11.7087 19.1062 11.7087 19.3747C11.7087 19.6431 11.9261 19.8607 12.1948 19.8607H18.6748C18.9432 19.8607 19.1608 19.6431 19.1608 19.3747C19.1608 19.1062 18.9432 18.8886 18.6748 18.8886Z" fill="#929292"/>
</g>
<defs>
<clipPath id="clip0">
<rect width="30" height="30" fill="white"/>
</clipPath>
</defs>
</svg>
